<svg aria-hidden="true" style="position:absolute;width:0;height:0;overflow:hidden" xmlns="http://www.w3.org/2000/svg"><defs>
<symbol id="bin" viewBox="0 0 32 32"><path d="M4 10v20c0 1.1.9 2 2 2h18c1.1 0 2-.9 2-2V10H4zm6 18H8V14h2v14zm4 0h-2V14h2v14zm4 0h-2V14h2v14zm4 0h-2V14h2v14zM26.5 4H20V1.5c0-.825-.675-1.5-1.5-1.5h-7c-.825 0-1.5.675-1.5 1.5V4H3.5C2.675 4 2 4.675 2 5.5V8h26V5.5c0-.825-.675-1.5-1.5-1.5zM18 4h-6V2.025h6V4z"/></symbol>
<symbol id="plus" viewBox="0 0 32 32"><path d="M31 12H20V1a1 1 0 0 0-1-1h-6a1 1 0 0 0-1 1v11H1a1 1 0 0 0-1 1v6a1 1 0 0 0 1 1h11v11a1 1 0 0 0 1 1h6a1 1 0 0 0 1-1V20h11a1 1 0 0 0 1-1v-6a1 1 0 0 0-1-1z"/></symbol>
<symbol id="icon-cancel-circle" viewBox="0 0 32 32"><path d="M16 0C7.163 0 0 7.163 0 16s7.163 16 16 16 16-7.163 16-16S24.837 0 16 0zm0 29C8.82 29 3 23.18 3 16S8.82 3 16 3s13 5.82 13 13-5.82 13-13 13z"/><path d="m21 8-5 5-5-5-3 3 5 5-5 5 3 3 5-5 5 5 3-3-5-5 5-5z"/></symbol>
<symbol id="checkbox-checked" viewBox="0 0 32 32"><path d="M28 0H4C1.8 0 0 1.8 0 4v24c0 2.2 1.8 4 4 4h24c2.2 0 4-1.8 4-4V4c0-2.2-1.8-4-4-4zM14 24.828l-7.414-7.414 2.828-2.828L14 19.172l9.586-9.586 2.828 2.828L14 24.828z"/></symbol>
<symbol id="icon-checkbox-unchecked" viewBox="0 0 32 32"><path d="M28 0H4C1.8 0 0 1.8 0 4v24c0 2.2 1.8 4 4 4h24c2.2 0 4-1.8 4-4V4c0-2.2-1.8-4-4-4zm0 28H4V4h24v24z"/></symbol></defs></svg>
